<svg xmlns="http://www.w3.org/2000/svg" fill="none" viewBox="507 419 109 141" width="109" height="141" style=""><defs><clipPath id="assetClipPath_n1MBDs35"><path d="m0 0 h 495 v 495 h -495 v -495 z" id="path_s9diwXzo" fill="#ffffff"/></clipPath><clipPath id="assetClipPath_24VZp6G2"><path d="m0 0 h 495 v 495 h -495 v -495 z" id="path_YYFgw4ON" fill="#ffffff"/></clipPath></defs><g transform="translate(354 224)" data-asset-index="-1"><g clip-path="url(#assetClipPath_n1MBDs35)" transform="scale(1 1)" data-asset-index="-1"><path fill="#97BC62" d="M168.22 198.52Q172.35 198.52 174.90 201.22Q177.45 203.93 177.45 208.27Q177.45 212.63 174.07 215.70Q170.70 218.77 166.57 218.77Q162.45 218.77 159.97 216.15Q157.50 213.52 157.50 209.18Q157.50 204.82 160.80 201.68Q164.10 198.52 168.22 198.52ZM175.95 228.22L175.80 235.88L175.50 260.18Q175.50 271.88 176.18 277.35Q176.85 282.82 180 287.63L180 287.63Q180 289.13 173.85 292.43Q167.70 295.72 163.35 295.72L163.35 295.72Q162 295.72 160.65 291.22Q159.30 286.72 158.93 282.68Q158.55 278.63 158.55 255.38Q158.55 232.13 159.60 230.02L159.60 230.02Q163.05 227.32 171.75 227.32L171.75 227.32Q175.20 227.32 175.95 228.22L175.95 228.22Z"/></g></g><g transform="translate(380 263)" data-asset-index="-1"><g clip-path="url(#assetClipPath_24VZp6G2)" transform="scale(1 1)" data-asset-index="-1"><path fill="#97BC62" d="M179.85 237.22L179.85 237.22Q213.45 234.22 213.45 215.77L213.45 215.77Q213.45 209.77 207.22 206.40Q201 203.02 191.40 203.02L191.40 203.02L180.60 203.93Q179.85 209.32 179.85 237.22ZM181.35 288.97Q179.70 290.63 174.82 291.60Q169.95 292.57 166.50 292.57Q163.05 292.57 160.95 291.68L160.95 291.68L161.85 205.13Q159.75 202.72 157.88 197.18Q156 191.63 156 190.35Q156 189.07 156.38 188.70Q156.75 188.32 165.97 187.80Q175.20 187.27 184.57 187.27Q193.95 187.27 201.30 188.32Q208.65 189.38 216.38 192.15Q224.10 194.93 228.68 200.70Q233.25 206.47 233.25 215.47Q233.25 224.47 227.77 231.97Q222.30 239.47 214.50 243.38L214.50 243.38Q198.30 251.63 185.40 253.27L185.40 253.27L179.85 253.88Q180.45 284.47 181.35 288.97L181.35 288.97Z"/></g></g></svg>